<svg width="627" height="598" viewBox="0 0 627 598" fill="none" xmlns="http://www.w3.org/2000/svg">
<g clip-path="url(#clip0_6_3)">
<path d="M582.573 158.875V125.299H577.347V158.875C575.847 159.481 574.606 160.589 573.834 162.009C573.063 163.429 572.81 165.072 573.119 166.658C573.428 168.244 574.28 169.673 575.528 170.7C576.776 171.728 578.343 172.289 579.96 172.289C581.577 172.289 583.144 171.728 584.392 170.7C585.64 169.673 586.492 168.244 586.8 166.658C587.109 165.072 586.857 163.429 586.085 162.009C585.314 160.589 584.072 159.481 582.573 158.875Z" fill="#E6E6E6"/>
<path d="M594.769 497.717H559.053V64.39H545.115V497.717H509.4C505.167 497.717 500.976 498.55 497.065 500.168C493.155 501.786 489.602 504.157 486.609 507.147C483.616 510.136 481.242 513.685 479.622 517.591C478.002 521.498 477.169 525.684 477.169 529.912V529.912H627V529.912C627 525.684 626.166 521.497 624.547 517.591C622.927 513.685 620.553 510.136 617.56 507.147C614.567 504.157 611.014 501.786 607.103 500.168C603.193 498.55 599.001 497.717 594.769 497.717Z" fill="#E6E6E6"/>
<path d="M477.241 128.78H626.928L617.774 14.4962C617.44 10.5554 615.641 6.8824 612.732 4.19971C609.822 1.51702 606.013 0.0188733 602.054 0H502.114C498.155 0.0188754 494.346 1.51702 491.437 4.19971C488.528 6.8824 486.729 10.5554 486.394 14.4962L477.241 128.78Z" fill="#393E46"/>
<path d="M53.2229 398.118H510.103V351.525C510.103 225.705 407.625 123.342 281.663 123.342C155.701 123.342 53.2229 225.705 53.2229 351.525V398.118Z" fill="#3F3D56"/>
<path opacity="0.2" d="M53.2229 398.118H510.103V351.525C510.103 225.705 407.625 123.342 281.663 123.342C155.701 123.342 53.2229 225.705 53.2229 351.525V398.118Z" fill="black"/>
<path d="M112.436 414.246H464.045C463.711 395.768 456.133 378.158 442.94 365.202C429.747 352.245 411.992 344.975 393.491 344.954H182.991C164.489 344.975 146.734 352.245 133.541 365.202C120.348 378.158 112.771 395.768 112.436 414.246Z" fill="#393E46"/>
<path d="M70.5652 407.078C109.537 407.078 141.13 375.52 141.13 336.592C141.13 297.663 109.537 266.106 70.5652 266.106C31.5931 266.106 0 297.663 0 336.592C0 375.52 31.5931 407.078 70.5652 407.078Z" fill="#3F3D56"/>
<path d="M498.74 407.078C537.713 407.078 569.306 375.52 569.306 336.592C569.306 297.663 537.713 266.106 498.74 266.106C459.768 266.106 428.175 297.663 428.175 336.592C428.175 375.52 459.768 407.078 498.74 407.078Z" fill="#3F3D56"/>
<path d="M445.518 372.432V398.715H119.602V372.432H46.6448V500.535C46.6448 508.384 49.7662 515.912 55.3224 521.462C60.8786 527.012 68.4145 530.13 76.2722 530.13H488.847C492.738 530.13 496.591 529.364 500.185 527.877C503.78 526.39 507.046 524.21 509.797 521.462C512.548 518.714 514.731 515.451 516.22 511.861C517.709 508.27 518.475 504.422 518.475 500.535V372.432H445.518Z" fill="#3F3D56"/>
<path opacity="0.2" d="M70.5651 350.928C78.4917 350.928 84.9174 344.509 84.9174 336.592C84.9174 328.674 78.4917 322.255 70.5651 322.255C62.6386 322.255 56.2129 328.674 56.2129 336.592C56.2129 344.509 62.6386 350.928 70.5651 350.928Z" fill="black"/>
<path opacity="0.2" d="M498.741 350.928C506.667 350.928 513.093 344.509 513.093 336.592C513.093 328.674 506.667 322.255 498.741 322.255C490.814 322.255 484.388 328.674 484.388 336.592C484.388 344.509 490.814 350.928 498.741 350.928Z" fill="black"/>
<path d="M307.658 115.29C307.658 115.29 309.069 142.068 318.945 147.705C328.822 153.343 318.945 191.396 318.945 191.396L272.384 192.805L269.562 147.705C269.562 147.705 275.206 129.384 272.384 120.927C269.562 112.471 307.658 115.29 307.658 115.29Z" fill="#FFB8B8"/>
<path d="M359.863 487.364L342.932 507.095L369.74 532.464L383.849 504.277L359.863 487.364Z" fill="#FFB8B8"/>
<path d="M239.931 487.364L256.863 507.095L230.055 532.464L215.945 504.277L239.931 487.364Z" fill="#FFB8B8"/>
<path d="M350.692 300.622C350.692 300.622 452.281 334.447 446.637 366.863C440.993 399.278 397.253 513.438 397.253 513.438C397.253 513.438 373.267 513.438 354.925 488.069L367.623 459.881C367.623 459.881 361.979 444.378 371.856 441.56C381.733 438.741 387.377 389.413 387.377 389.413C387.377 389.413 315.418 383.775 299.897 356.997L271.678 289.347L350.692 300.622Z" fill="#2F2E41"/>
<path d="M249.103 300.622C249.103 300.622 147.514 334.447 153.158 366.863C158.802 399.278 202.541 513.438 202.541 513.438C202.541 513.438 226.528 513.438 244.87 488.069L232.171 459.881C232.171 459.881 237.815 444.378 227.939 441.56C218.062 438.741 212.418 389.413 212.418 389.413C212.418 389.413 284.377 383.775 299.897 356.997L328.116 289.347L249.103 300.622Z" fill="#2F2E41"/>
<path d="M364.801 521.894C364.801 521.894 378.911 509.209 380.322 519.075C381.733 528.941 378.911 568.403 378.911 568.403C378.911 568.403 393.02 598 371.856 598C350.692 598 340.815 575.45 343.637 552.9C346.459 530.35 333.76 521.894 333.76 521.894C333.76 521.894 318.24 490.888 333.76 488.069C349.281 485.25 354.925 492.297 354.925 492.297C354.925 492.297 349.281 517.666 364.801 521.894Z" fill="#2F2E41"/>
<path d="M234.993 521.894C234.993 521.894 220.884 509.209 219.473 519.075C218.062 528.941 220.884 568.403 220.884 568.403C220.884 568.403 206.774 598 227.939 598C249.103 598 258.98 575.45 256.158 552.9C253.336 530.35 266.034 521.894 266.034 521.894C266.034 521.894 281.555 490.888 266.034 488.069C250.514 485.25 244.87 492.297 244.87 492.297C244.87 492.297 250.514 517.666 234.993 521.894Z" fill="#2F2E41"/>
<path d="M285.788 131.498C303.711 131.498 318.24 116.985 318.24 99.082C318.24 81.1794 303.711 66.6664 285.788 66.6664C267.865 66.6664 253.336 81.1794 253.336 99.082C253.336 116.985 267.865 131.498 285.788 131.498Z" fill="#FFB8B8"/>
<path d="M290.726 154.752L270.973 139.249L223 161.799L221.589 290.052C221.589 290.052 191.959 304.146 200.425 322.468C200.425 322.468 225.822 328.105 237.11 339.38C248.397 350.655 311.89 335.152 338.699 326.696C365.507 318.239 372.562 308.374 372.562 308.374L345.753 270.321L361.274 173.074L313.307 140.861L290.726 154.752Z" fill="#E6E6E6"/>
<path d="M325.241 77.0192C324.534 76.0608 323.888 75.0591 323.306 74.0199C322.3 71.572 323.89 68.6871 322.404 66.4012C320.888 64.0678 317.04 63.5757 314.421 61.9904C310.387 59.5483 309.654 54.7563 305.874 52.0652C303.151 50.1262 299.267 49.6035 295.628 49.7141C291.989 49.8247 288.399 50.4819 284.758 50.554C279.844 50.6636 274.968 49.6676 270.492 47.6399L273.178 52.8875C270.193 52.2377 267.342 51.0833 264.747 49.4741C263.559 50.9459 265.732 53.1796 264.385 54.5601C263.833 55.0054 263.179 55.308 262.482 55.4414C257.302 56.9117 252.424 59.2887 248.076 62.4618C247.069 63.1014 246.236 63.9796 245.652 65.0182C244.952 66.5678 245.572 68.2793 245.519 69.927C245.423 72.9208 243.135 75.5315 241.511 78.2285C239.887 80.9255 239.011 84.4221 241.419 86.7112C242.005 87.1762 242.566 87.6708 243.101 88.1933C245.514 91.0362 241.243 95.1996 243.302 98.2164C244.196 99.5263 246.028 100.189 247.62 100.963C250.67 102.387 253.236 104.672 255.002 107.535L253.764 98.4609C253.699 98.2367 253.688 98.0004 253.731 97.7709C253.773 97.5414 253.869 97.3251 254.011 97.1392C254.61 96.5289 255.866 96.7722 256.693 96.3681C257.604 95.9234 257.672 94.9033 257.636 94.0489L257.357 87.4609C257.232 84.4985 257.198 84.1051 259.382 81.7139C260.908 80.0433 263.308 79.0353 265.719 78.294C271.229 76.6001 277.156 76.0141 283.013 75.4415C289.816 74.7766 297.476 71.4796 302.759 74.9801C307.083 77.8457 308.521 82.5557 310.604 86.733C312.477 90.4877 317.284 101.543 321.286 95.5585C323.799 91.8004 327.642 81.2036 325.241 77.0192Z" fill="#2F2E41"/>
<path d="M291.359 89.6787C291.225 89.6788 291.097 89.7319 291.003 89.8263C290.908 89.9206 290.855 90.0486 290.854 90.1822V103.754C290.855 103.887 290.908 104.015 291.003 104.11C291.097 104.204 291.225 104.257 291.359 104.257H314.748C314.882 104.257 315.01 104.204 315.104 104.11C315.199 104.015 315.252 103.887 315.252 103.754V90.1822C315.252 90.0486 315.199 89.9206 315.104 89.8263C315.01 89.7319 314.882 89.6788 314.748 89.6787L291.359 89.6787Z" fill="#3F3D56"/>
<path d="M293.973 90.8755C293.724 90.8758 293.485 90.9748 293.309 91.1507C293.132 91.3267 293.033 91.5652 293.033 91.8141V102.122C293.033 102.371 293.132 102.609 293.309 102.785C293.485 102.961 293.724 103.06 293.973 103.06H312.134C312.383 103.06 312.622 102.961 312.798 102.785C312.974 102.609 313.073 102.371 313.074 102.122V91.8141C313.073 91.5652 312.974 91.3267 312.798 91.1507C312.622 90.9748 312.383 90.8758 312.134 90.8755H293.973Z" fill="#FF6584"/>
<path d="M291.622 94.1492H279.438V96.9679H291.622V94.1492Z" fill="#3F3D56"/>
<path d="M258.238 89.6787C258.105 89.6789 257.977 89.732 257.882 89.8264C257.788 89.9208 257.735 90.0487 257.734 90.1822V103.754C257.735 103.887 257.788 104.015 257.882 104.11C257.977 104.204 258.105 104.257 258.238 104.257H281.628C281.761 104.257 281.89 104.204 281.984 104.11C282.079 104.015 282.132 103.887 282.132 103.754V90.1822C282.132 90.0487 282.079 89.9207 281.984 89.8264C281.89 89.732 281.761 89.6789 281.628 89.6787L258.238 89.6787Z" fill="#3F3D56"/>
<path d="M260.853 90.8755C260.603 90.8757 260.365 90.9747 260.188 91.1506C260.012 91.3266 259.913 91.5652 259.913 91.8141V102.122C259.913 102.371 260.012 102.609 260.188 102.785C260.365 102.961 260.603 103.06 260.853 103.06H279.014C279.263 103.06 279.502 102.961 279.678 102.785C279.854 102.609 279.953 102.371 279.954 102.122V91.8141C279.953 91.5652 279.854 91.3266 279.678 91.1506C279.502 90.9747 279.263 90.8757 279.014 90.8755H260.853Z" fill="#393E46"/>
<path d="M245.453 259.083H326.466C329.701 259.083 332.803 260.366 335.09 262.651C337.377 264.935 338.662 268.034 338.662 271.264H233.257C233.257 268.034 234.542 264.935 236.829 262.651C239.116 260.366 242.218 259.083 245.453 259.083Z" fill="#3F3D56"/>
<path d="M332.128 258.212C331.654 258.215 331.184 258.295 330.735 258.449C330.582 257.831 330.207 257.291 329.682 256.931C329.156 256.57 328.517 256.414 327.885 256.492C327.252 256.57 326.67 256.876 326.248 257.354C325.826 257.831 325.594 258.446 325.595 259.083C325.595 259.096 325.598 259.108 325.599 259.121C325.272 259.152 324.95 259.218 324.638 259.319C324.549 258.968 324.389 258.639 324.166 258.353C323.944 258.067 323.664 257.83 323.346 257.657C324.183 257.194 324.845 256.47 325.231 255.596C325.721 255.644 326.215 255.589 326.682 255.434C327.149 255.279 327.578 255.027 327.941 254.696C328.305 254.364 328.594 253.959 328.79 253.508C328.986 253.057 329.084 252.57 329.079 252.079C329.074 251.587 328.966 251.102 328.76 250.655C328.555 250.208 328.258 249.81 327.888 249.485C327.518 249.161 327.084 248.918 326.614 248.773C326.144 248.627 325.648 248.582 325.16 248.641C324.685 248.643 324.215 248.723 323.767 248.878C323.686 248.536 323.537 248.213 323.328 247.93C323.12 247.647 322.856 247.409 322.553 247.231C322.25 247.053 321.913 246.937 321.564 246.892C321.215 246.847 320.861 246.873 320.522 246.969C320.184 247.065 319.868 247.228 319.594 247.449C319.32 247.67 319.094 247.943 318.93 248.254C318.765 248.565 318.665 248.905 318.635 249.255C318.606 249.606 318.648 249.958 318.759 250.292C318.654 250.364 318.557 250.446 318.46 250.526C317.967 250.103 317.327 249.89 316.679 249.934C316.344 248.973 315.681 248.161 314.806 247.639C313.932 247.117 312.901 246.919 311.895 247.08C310.889 247.241 309.972 247.75 309.305 248.519C308.637 249.287 308.261 250.266 308.243 251.283C307.894 251.311 307.549 251.38 307.215 251.488C307.178 251.341 307.128 251.197 307.065 251.059C307.409 250.756 307.685 250.384 307.876 249.967C308.067 249.551 308.168 249.099 308.173 248.641C308.112 247.661 307.665 246.746 306.931 246.094C306.197 245.442 305.234 245.106 304.253 245.16C303.779 245.163 303.308 245.243 302.86 245.397C302.779 245.055 302.63 244.733 302.422 244.45C302.213 244.167 301.949 243.929 301.646 243.75C301.343 243.572 301.007 243.457 300.658 243.412C300.309 243.367 299.954 243.393 299.616 243.489C299.277 243.584 298.961 243.747 298.688 243.968C298.414 244.189 298.188 244.463 298.023 244.773C297.858 245.084 297.758 245.425 297.728 245.775C297.699 246.125 297.741 246.478 297.852 246.811C297.303 247.192 296.85 247.694 296.527 248.277C296.204 248.861 296.02 249.512 295.99 250.178C295.953 250.211 295.911 250.237 295.876 250.272C295.941 250.024 295.975 249.768 295.977 249.511C295.916 248.532 295.47 247.616 294.735 246.964C294.001 246.312 293.038 245.976 292.057 246.031C291.583 246.033 291.112 246.113 290.664 246.267C290.584 245.925 290.435 245.603 290.226 245.32C290.018 245.037 289.754 244.799 289.45 244.621C289.147 244.442 288.811 244.327 288.462 244.282C288.113 244.237 287.759 244.263 287.42 244.359C287.081 244.454 286.766 244.617 286.492 244.838C286.218 245.059 285.992 245.333 285.827 245.644C285.662 245.954 285.562 246.295 285.533 246.645C285.503 246.995 285.545 247.348 285.656 247.681C285.078 248.081 284.605 248.614 284.279 249.236C283.952 249.858 283.782 250.549 283.782 251.251C283.782 251.953 283.952 252.645 284.279 253.267C284.605 253.889 285.078 254.422 285.656 254.821C285.48 255.327 285.48 255.877 285.656 256.383C285.22 256.687 284.842 257.068 284.542 257.507C284.38 256.922 284.019 256.413 283.521 256.067C283.023 255.72 282.419 255.559 281.814 255.612C281.21 255.664 280.642 255.926 280.211 256.352C279.78 256.779 279.512 257.343 279.453 257.946C279.104 257.742 278.726 257.59 278.333 257.494C279.039 257.029 279.594 256.37 279.933 255.596C280.423 255.644 280.917 255.589 281.384 255.434C281.851 255.279 282.28 255.027 282.644 254.696C283.007 254.364 283.296 253.959 283.492 253.508C283.688 253.057 283.787 252.57 283.782 252.079C283.776 251.587 283.668 251.102 283.462 250.655C283.257 250.208 282.96 249.81 282.59 249.485C282.22 249.161 281.786 248.918 281.316 248.773C280.846 248.627 280.35 248.582 279.862 248.641C279.387 248.643 278.917 248.723 278.469 248.878C278.388 248.536 278.239 248.213 278.031 247.93C277.822 247.647 277.558 247.409 277.255 247.231C276.952 247.053 276.615 246.937 276.266 246.892C275.917 246.847 275.563 246.873 275.224 246.969C274.886 247.065 274.57 247.228 274.296 247.449C274.023 247.67 273.796 247.943 273.632 248.254C273.467 248.565 273.367 248.905 273.337 249.255C273.308 249.606 273.35 249.958 273.461 250.292C273.405 250.331 273.354 250.376 273.3 250.418C273.165 250.405 273.032 250.381 272.893 250.381C272.419 250.383 271.948 250.463 271.5 250.618C271.483 250.552 271.456 250.492 271.435 250.428C271.519 250.041 271.512 249.639 271.415 249.255C271.318 248.87 271.133 248.514 270.874 248.213C270.616 247.912 270.291 247.675 269.925 247.521C269.56 247.367 269.163 247.299 268.767 247.324C268.54 246.693 268.171 246.123 267.687 245.658C267.203 245.194 266.618 244.848 265.977 244.646C265.337 244.445 264.659 244.395 263.996 244.499C263.333 244.603 262.703 244.859 262.155 245.247C261.608 245.635 261.157 246.144 260.84 246.734C260.522 247.324 260.345 247.98 260.323 248.65C260.301 249.32 260.434 249.987 260.713 250.597C260.991 251.206 261.407 251.744 261.928 252.166C261.629 252.201 261.333 252.265 261.046 252.358C260.943 251.934 260.735 251.543 260.439 251.221C260.144 250.899 259.772 250.657 259.358 250.517C258.944 250.378 258.502 250.345 258.071 250.422C257.641 250.499 257.238 250.684 256.898 250.959C256.51 250.498 256.024 250.13 255.476 249.879C254.928 249.629 254.331 249.503 253.728 249.511C253.254 249.513 252.783 249.593 252.335 249.748C252.255 249.406 252.106 249.083 251.897 248.8C251.688 248.517 251.425 248.279 251.121 248.101C250.818 247.923 250.482 247.808 250.133 247.763C249.784 247.718 249.43 247.744 249.091 247.839C248.752 247.935 248.437 248.098 248.163 248.319C247.889 248.54 247.663 248.814 247.498 249.124C247.333 249.435 247.233 249.775 247.204 250.126C247.174 250.476 247.216 250.828 247.327 251.162C246.749 251.561 246.276 252.095 245.95 252.716C245.623 253.338 245.453 254.03 245.453 254.732C245.453 254.745 245.457 254.758 245.457 254.771C244.839 254.678 244.208 254.746 243.624 254.969C243.544 254.627 243.395 254.304 243.186 254.021C242.977 253.738 242.713 253.5 242.41 253.322C242.107 253.144 241.771 253.028 241.422 252.983C241.073 252.938 240.718 252.964 240.38 253.06C240.041 253.156 239.725 253.319 239.452 253.54C239.178 253.76 238.952 254.034 238.787 254.345C238.622 254.655 238.522 254.996 238.493 255.346C238.463 255.697 238.505 256.049 238.616 256.383C237.776 256.951 237.162 257.795 236.88 258.769C236.599 259.742 236.668 260.784 237.076 261.712C237.483 262.64 238.204 263.396 239.111 263.848C240.019 264.3 241.057 264.421 242.044 264.188C242.202 265.096 242.644 265.93 243.308 266.569C243.972 267.209 244.823 267.62 245.737 267.744C246.651 267.868 247.58 267.698 248.391 267.259C249.202 266.82 249.851 266.134 250.245 265.301C253.382 265.708 256.567 265.565 259.655 264.877C259.943 265.701 260.473 266.419 261.177 266.938C261.88 267.456 262.724 267.75 263.597 267.781C264.47 267.813 265.333 267.58 266.072 267.113C266.81 266.647 267.391 265.969 267.737 265.167C268.372 265.155 268.997 265 269.564 264.716C269.962 265.417 270.548 265.994 271.256 266.382C271.964 266.769 272.766 266.951 273.572 266.907C274.378 266.864 275.156 266.597 275.818 266.135C276.48 265.674 277 265.037 277.32 264.297C278.288 264.114 279.291 264.275 280.153 264.753C281.015 265.231 281.683 265.995 282.039 266.914C282.622 266.117 283.372 265.457 284.236 264.979C285.1 264.502 286.058 264.218 287.043 264.148C287.918 264.392 288.849 264.348 289.698 264.025C290.547 263.701 291.27 263.113 291.76 262.349C291.486 263.408 291.622 264.532 292.141 265.496C292.66 266.459 293.524 267.192 294.56 267.548C295.596 267.903 296.728 267.856 297.731 267.415C298.733 266.973 299.532 266.171 299.969 265.167C300.604 265.155 301.228 265 301.796 264.716C302.193 265.417 302.779 265.994 303.487 266.382C304.195 266.769 304.997 266.951 305.803 266.907C306.609 266.864 307.387 266.597 308.049 266.135C308.711 265.674 309.231 265.037 309.551 264.297C310.186 264.284 310.81 264.13 311.378 263.845C311.684 264.391 312.106 264.863 312.613 265.229C313.121 265.595 313.702 265.846 314.316 265.965C314.931 266.084 315.564 266.068 316.172 265.918C316.779 265.768 317.347 265.487 317.835 265.096C317.986 265.928 318.378 266.698 318.962 267.31C319.547 267.923 320.297 268.351 321.122 268.542C321.948 268.733 322.811 268.679 323.605 268.386C324.399 268.093 325.091 267.574 325.593 266.893C326.116 267.293 326.723 267.568 327.369 267.699C328.015 267.829 328.682 267.81 329.319 267.643C329.956 267.477 330.547 267.167 331.046 266.738C331.545 266.309 331.94 265.772 332.2 265.167C332.689 265.216 333.184 265.161 333.651 265.006C334.118 264.851 334.547 264.599 334.91 264.267C335.273 263.935 335.562 263.531 335.758 263.08C335.954 262.629 336.053 262.142 336.048 261.65C336.043 261.158 335.934 260.673 335.729 260.227C335.524 259.78 335.227 259.381 334.857 259.057C334.487 258.733 334.053 258.49 333.583 258.344C333.113 258.199 332.617 258.154 332.128 258.212L332.128 258.212ZM254.27 256.417C254.265 256.438 254.262 256.459 254.258 256.48C254.226 256.479 254.196 256.472 254.164 256.472C254.034 256.475 253.904 256.489 253.776 256.511C253.783 256.496 253.793 256.482 253.8 256.466C253.957 256.458 254.114 256.442 254.27 256.417ZM290.664 254.969C290.652 254.918 290.63 254.872 290.614 254.822C291.279 254.361 291.804 253.726 292.129 252.985C292.701 252.982 293.267 252.859 293.789 252.623C294.311 252.387 294.777 252.043 295.157 251.615C295.124 251.782 295.107 251.952 295.106 252.122C295.11 252.387 295.154 252.65 295.238 252.902C294.491 253.423 293.924 254.165 293.619 255.023C292.672 254.654 291.624 254.635 290.664 254.969V254.969ZM316.754 255.293C316.753 255.24 316.759 255.185 316.756 255.132C316.867 255.132 316.978 255.124 317.088 255.11C317.257 255.672 317.539 256.195 317.918 256.645C317.835 256.668 317.749 256.682 317.669 256.709C317.528 256.15 317.207 255.652 316.754 255.293Z" fill="#F9A825"/>
<path d="M242.032 263.433C240.797 263.433 239.574 263.685 238.439 264.172C237.304 264.66 236.28 265.373 235.43 266.269C234.58 267.165 233.922 268.224 233.495 269.383C233.069 270.541 232.883 271.774 232.949 273.006L238.848 354.029C238.972 356.351 239.984 358.538 241.673 360.137C243.363 361.737 245.603 362.629 247.931 362.629H323.988C326.316 362.629 328.556 361.737 330.246 360.137C331.935 358.538 332.947 356.351 333.071 354.029L338.97 273.006C339.036 271.774 338.85 270.541 338.424 269.383C337.997 268.224 337.339 267.165 336.489 266.269C335.639 265.373 334.615 264.66 333.48 264.172C332.345 263.685 331.122 263.433 329.887 263.433H242.032Z" fill="#3F3D56"/>
<path d="M251.551 263.433H246.324V362.629H251.551V263.433Z" fill="#393E46"/>
<path d="M266.359 263.433H261.133V362.629H266.359V263.433Z" fill="#393E46"/>
<path d="M281.168 263.433H275.942V362.629H281.168V263.433Z" fill="#393E46"/>
<path d="M295.977 263.433H290.751V362.629H295.977V263.433Z" fill="#393E46"/>
<path d="M310.786 263.433H305.56V362.629H310.786V263.433Z" fill="#393E46"/>
<path d="M325.595 263.433H320.369V362.629H325.595V263.433Z" fill="#393E46"/>
<path d="M320.356 312.602L303.425 322.468C303.425 322.468 262.507 356.292 290.726 361.93C318.945 367.567 326 337.971 326 337.971L335.877 326.696L320.356 312.602Z" fill="#FFB8B8"/>
<path d="M239.932 305.555L256.863 315.421C256.863 315.421 297.781 349.246 269.562 354.883C241.343 360.521 234.288 330.924 234.288 330.924L224.411 319.649L239.932 305.555Z" fill="#FFB8B8"/>
<path d="M342.931 171.665L361.274 173.074C361.274 173.074 375.383 185.758 373.972 202.671C373.972 202.671 386.671 239.315 383.849 254.818C383.849 254.818 386.671 280.186 382.438 290.052C378.205 299.918 342.931 337.971 342.931 337.971C342.931 337.971 310.479 312.602 311.89 311.193L354.219 268.911L333.055 240.724L342.931 171.665Z" fill="#E6E6E6"/>
<path d="M223 161.799L222.295 162.504C222.295 162.504 190.548 175.893 191.959 192.805C191.959 192.805 179.261 229.449 182.083 244.952C182.083 244.952 179.261 270.321 183.494 280.186C187.726 290.052 223 328.105 223 328.105C223 328.105 255.452 302.736 254.041 301.327L211.713 259.046L232.877 230.858L223 161.799Z" fill="#E6E6E6"/>
</g>
<defs>
<clipPath id="clip0_6_3">
<rect width="627" height="598" fill="white"/>
</clipPath>
</defs>
</svg>
